<?xml version="1.0" standalone="no"?>
<!DOCTYPE svg PUBLIC "-//W3C//DTD SVG 1.1//EN"
"http://www.w3.org/Graphics/SVG/1.1/DTD/svg11.dtd">
<svg height="600" version="1.1" width="800" xmlns="http://www.w3.org/2000/svg"><g><rect fill="#f9f9f9" height="600" width="800" x="0" y="0" /><g transform="translate(40 40)"><g transform="translate(214 0)" /><g transform="translate(0 0)"><g transform="translate(214 0)"><g class="axis bottom"><text dy="1em" fill="#666" font-family="Monaco" text-anchor="middle" transform="" x="253.0" y="506.0">Matches</text><g class="tick"><line stroke="#eee" stroke-width="1" x1="126.50" x2="126.50" y1="0" y2="472.0" /><text dy="1em" fill="#9c9c9c" font-family="Monaco" text-anchor="middle" x="126.50" y="476.0">5</text></g><g class="tick"><line stroke="#eee" stroke-width="1" x1="253.0" x2="253.0" y1="0" y2="472.0" /><text dy="1em" fill="#9c9c9c" font-family="Monaco" text-anchor="middle" x="253.0" y="476.0">10</text></g><g class="tick"><line stroke="#eee" stroke-width="1" x1="379.50" x2="379.50" y1="0" y2="472.0" /><text dy="1em" fill="#9c9c9c" font-family="Monaco" text-anchor="middle" x="379.50" y="476.0">15</text></g><g class="tick"><line stroke="#eee" stroke-width="1" x1="506" x2="506" y1="0" y2="472.0" /><text dy="1em" fill="#9c9c9c" font-family="Monaco" text-anchor="middle" x="506" y="476.0">20</text></g><g class="tick"><line stroke="#a8a8a8" stroke-width="1" x1="0" x2="0" y1="0" y2="472.0" /><text dy="1em" fill="#9c9c9c" font-family="Monaco" text-anchor="middle" x="0" y="476.0">0</text></g></g><g class="axis left"><text dy="" fill="#666" font-family="Monaco" text-anchor="middle" transform="rotate(270 -192 234)" x="-192" y="234.0">team</text><g class="tick"><line stroke="#eee" stroke-width="1" x1="-4" x2="506.0" y1="456.8571428571428571428571429" y2="456.8571428571428571428571429" /><text dy="0.32em" fill="#9c9c9c" font-family="Monaco" text-anchor="end" x="-8" y="456.8571428571428571428571429">Real Salt Lake</text></g><g class="tick"><line stroke="#eee" stroke-width="1" x1="-4" x2="506.0" y1="434.5714285714285714285714286" y2="434.5714285714285714285714286" /><text dy="0.32em" fill="#9c9c9c" font-family="Monaco" text-anchor="end" x="-8" y="434.5714285714285714285714286">New England Revolution</text></g><g class="tick"><line stroke="#eee" stroke-width="1" x1="-4" x2="506.0" y1="412.2857142857142857142857143" y2="412.2857142857142857142857143" /><text dy="0.32em" fill="#9c9c9c" font-family="Monaco" text-anchor="end" x="-8" y="412.2857142857142857142857143">Minnesota United FC</text></g><g class="tick"><line stroke="#eee" stroke-width="1" x1="-4" x2="506.0" y1="390.0000000000000000000000000" y2="390.0000000000000000000000000" /><text dy="0.32em" fill="#9c9c9c" font-family="Monaco" text-anchor="end" x="-8" y="390.0000000000000000000000000">Columbus Crew SC</text></g><g class="tick"><line stroke="#eee" stroke-width="1" x1="-4" x2="506.0" y1="367.7142857142857142857142857" y2="367.7142857142857142857142857" /><text dy="0.32em" fill="#9c9c9c" font-family="Monaco" text-anchor="end" x="-8" y="367.7142857142857142857142857">Colorado Rapids</text></g><g class="tick"><line stroke="#eee" stroke-width="1" x1="-4" x2="506.0" y1="345.4285714285714285714285715" y2="345.4285714285714285714285715" /><text dy="0.32em" fill="#9c9c9c" font-family="Monaco" text-anchor="end" x="-8" y="345.4285714285714285714285715">Philadelphia Union</text></g><g class="tick"><line stroke="#eee" stroke-width="1" x1="-4" x2="506.0" y1="323.1428571428571428571428572" y2="323.1428571428571428571428572" /><text dy="0.32em" fill="#9c9c9c" font-family="Monaco" text-anchor="end" x="-8" y="323.1428571428571428571428572">Toronto FC</text></g><g class="tick"><line stroke="#eee" stroke-width="1" x1="-4" x2="506.0" y1="300.8571428571428571428571429" y2="300.8571428571428571428571429" /><text dy="0.32em" fill="#9c9c9c" font-family="Monaco" text-anchor="end" x="-8" y="300.8571428571428571428571429">San Jose Earthquakes</text></g><g class="tick"><line stroke="#eee" stroke-width="1" x1="-4" x2="506.0" y1="278.5714285714285714285714286" y2="278.5714285714285714285714286" /><text dy="0.32em" fill="#9c9c9c" font-family="Monaco" text-anchor="end" x="-8" y="278.5714285714285714285714286">Houston Dynamo</text></g><g class="tick"><line stroke="#eee" stroke-width="1" x1="-4" x2="506.0" y1="256.2857142857142857142857143" y2="256.2857142857142857142857143" /><text dy="0.32em" fill="#9c9c9c" font-family="Monaco" text-anchor="end" x="-8" y="256.2857142857142857142857143">Sporting Kansas City</text></g><g class="tick"><line stroke="#eee" stroke-width="1" x1="-4" x2="506.0" y1="234.0000000000000000000000000" y2="234.0000000000000000000000000" /><text dy="0.32em" fill="#9c9c9c" font-family="Monaco" text-anchor="end" x="-8" y="234.0000000000000000000000000">FC Dallas</text></g><g class="tick"><line stroke="#eee" stroke-width="1" x1="-4" x2="506.0" y1="211.7142857142857142857142857" y2="211.7142857142857142857142857" /><text dy="0.32em" fill="#9c9c9c" font-family="Monaco" text-anchor="end" x="-8" y="211.7142857142857142857142857">Chicago Fire</text></g><g class="tick"><line stroke="#eee" stroke-width="1" x1="-4" x2="506.0" y1="189.4285714285714285714285714" y2="189.4285714285714285714285714" /><text dy="0.32em" fill="#9c9c9c" font-family="Monaco" text-anchor="end" x="-8" y="189.4285714285714285714285714">Portland Timbers</text></g><g class="tick"><line stroke="#eee" stroke-width="1" x1="-4" x2="506.0" y1="167.1428571428571428571428571" y2="167.1428571428571428571428571" /><text dy="0.32em" fill="#9c9c9c" font-family="Monaco" text-anchor="end" x="-8" y="167.1428571428571428571428571">D.C. United</text></g><g class="tick"><line stroke="#eee" stroke-width="1" x1="-4" x2="506.0" y1="144.8571428571428571428571428" y2="144.8571428571428571428571428" /><text dy="0.32em" fill="#9c9c9c" font-family="Monaco" text-anchor="end" x="-8" y="144.8571428571428571428571428">Seattle Sounders</text></g><g class="tick"><line stroke="#eee" stroke-width="1" x1="-4" x2="506.0" y1="122.5714285714285714285714285" y2="122.5714285714285714285714285" /><text dy="0.32em" fill="#9c9c9c" font-family="Monaco" text-anchor="end" x="-8" y="122.5714285714285714285714285">Orlando City SC</text></g><g class="tick"><line stroke="#eee" stroke-width="1" x1="-4" x2="506.0" y1="100.2857142857142857142857143" y2="100.2857142857142857142857143" /><text dy="0.32em" fill="#9c9c9c" font-family="Monaco" text-anchor="end" x="-8" y="100.2857142857142857142857143">LA Galaxy</text></g><g class="tick"><line stroke="#eee" stroke-width="1" x1="-4" x2="506.0" y1="77.99999999999999999999999996" y2="77.99999999999999999999999996" /><text dy="0.32em" fill="#9c9c9c" font-family="Monaco" text-anchor="end" x="-8" y="77.99999999999999999999999996">New York Red Bulls</text></g><g class="tick"><line stroke="#eee" stroke-width="1" x1="-4" x2="506.0" y1="55.71428571428571428571428566" y2="55.71428571428571428571428566" /><text dy="0.32em" fill="#9c9c9c" font-family="Monaco" text-anchor="end" x="-8" y="55.71428571428571428571428566">New York City FC</text></g><g class="tick"><line stroke="#eee" stroke-width="1" x1="-4" x2="506.0" y1="33.42857142857142857142857136" y2="33.42857142857142857142857136" /><text dy="0.32em" fill="#9c9c9c" font-family="Monaco" text-anchor="end" x="-8" y="33.42857142857142857142857136">LAFC</text></g><g class="tick"><line stroke="#eee" stroke-width="1" x1="-4" x2="506.0" y1="11.14285714285714285714285706" y2="11.14285714285714285714285706" /><text dy="0.32em" fill="#9c9c9c" font-family="Monaco" text-anchor="end" x="-8" y="11.14285714285714285714285706">Atlanta United</text></g></g><g><g class="series bars"><rect fill="#e41a1c" height="20.0571428571428571428571429" width="50.6" x="0" y="446.8285714285714285714285714" /><rect fill="#e41a1c" height="20.0571428571428571428571429" width="50.6" x="0" y="424.5428571428571428571428571" /><rect fill="#e41a1c" height="20.0571428571428571428571429" width="50.6" x="0" y="402.2571428571428571428571428" /><rect fill="#e41a1c" height="20.0571428571428571428571429" width="50.6" x="0" y="379.9714285714285714285714285" /><rect fill="#e41a1c" height="20.0571428571428571428571428" width="50.6" x="0" y="357.6857142857142857142857143" /><rect fill="#e41a1c" height="20.0571428571428571428571429" width="75.90" x="0" y="335.4000000000000000000000000" /><rect fill="#e41a1c" height="20.0571428571428571428571429" width="101.2" x="0" y="313.1142857142857142857142857" /><rect fill="#e41a1c" height="20.0571428571428571428571429" width="126.50" x="0" y="290.8285714285714285714285714" /><rect fill="#e41a1c" height="20.0571428571428571428571429" width="151.8" x="0" y="268.5428571428571428571428571" /><rect fill="#e41a1c" height="20.0571428571428571428571429" width="177.10" x="0" y="246.2571428571428571428571428" /><rect fill="#e41a1c" height="20.0571428571428571428571429" width="177.10" x="0" y="223.9714285714285714285714285" /><rect fill="#e41a1c" height="20.0571428571428571428571429" width="177.10" x="0" y="201.6857142857142857142857142" /><rect fill="#e41a1c" height="20.0571428571428571428571429" width="303.6" x="0" y="179.3999999999999999999999999" /><rect fill="#e41a1c" height="20.0571428571428571428571429" width="303.6" x="0" y="157.1142857142857142857142856" /><rect fill="#e41a1c" height="20.0571428571428571428571429" width="328.90" x="0" y="134.8285714285714285714285713" /><rect fill="#e41a1c" height="20.0571428571428571428571428" width="328.90" x="0" y="112.5428571428571428571428571" /><rect fill="#e41a1c" height="20.05714285714285714285714289" width="328.90" x="0" y="90.25714285714285714285714281" /><rect fill="#e41a1c" height="20.05714285714285714285714288" width="354.2" x="0" y="67.97142857142857142857142851" /><rect fill="#e41a1c" height="20.05714285714285714285714288" width="354.2" x="0" y="45.68571428571428571428571421" /><rect fill="#e41a1c" height="20.05714285714285714285714288" width="404.8" x="0" y="23.39999999999999999999999991" /><rect fill="#e41a1c" height="20.05714285714285714285714288" width="404.8" x="0" y="1.114285714285714285714285614" /></g></g></g></g></g></g></svg>