<?xml version="1.0" standalone="no"?>
<!DOCTYPE svg PUBLIC "-//W3C//DTD SVG 1.1//EN"
"http://www.w3.org/Graphics/SVG/1.1/DTD/svg11.dtd">
<svg height="600" version="1.1" width="800" xmlns="http://www.w3.org/2000/svg"><g><rect fill="#f9f9f9" height="600" width="800" x="0" y="0" /><g transform="translate(40 40)"><g transform="translate(214 0)" /><g transform="translate(0 0)"><g transform="translate(214 0)"><g class="axis bottom"><text dy="1em" fill="#666" font-family="Monaco" text-anchor="middle" transform="" x="253.0" y="506.0">Matches</text><g class="tick"><line stroke="#eee" stroke-width="1" x1="168.6666666666666666666666666" x2="168.6666666666666666666666666" y1="0" y2="472.0" /><text dy="1em" fill="#9c9c9c" font-family="Monaco" text-anchor="middle" x="168.6666666666666666666666666" y="476.0">2</text></g><g class="tick"><line stroke="#eee" stroke-width="1" x1="337.3333333333333333333333334" x2="337.3333333333333333333333334" y1="0" y2="472.0" /><text dy="1em" fill="#9c9c9c" font-family="Monaco" text-anchor="middle" x="337.3333333333333333333333334" y="476.0">4</text></g><g class="tick"><line stroke="#eee" stroke-width="1" x1="506" x2="506" y1="0" y2="472.0" /><text dy="1em" fill="#9c9c9c" font-family="Monaco" text-anchor="middle" x="506" y="476.0">6</text></g><g class="tick"><line stroke="#a8a8a8" stroke-width="1" x1="0" x2="0" y1="0" y2="472.0" /><text dy="1em" fill="#9c9c9c" font-family="Monaco" text-anchor="middle" x="0" y="476.0">0</text></g></g><g class="axis left"><text dy="" fill="#666" font-family="Monaco" text-anchor="middle" transform="rotate(270 -192 234)" x="-192" y="234.0">team</text><g class="tick"><line stroke="#eee" stroke-width="1" x1="-4" x2="506.0" y1="453.375" y2="453.375" /><text dy="0.32em" fill="#9c9c9c" font-family="Monaco" text-anchor="end" x="-8" y="453.375">Colorado Rapids</text></g><g class="tick"><line stroke="#eee" stroke-width="1" x1="-4" x2="506.0" y1="424.125" y2="424.125" /><text dy="0.32em" fill="#9c9c9c" font-family="Monaco" text-anchor="end" x="-8" y="424.125">Philadelphia Union</text></g><g class="tick"><line stroke="#eee" stroke-width="1" x1="-4" x2="506.0" y1="394.875" y2="394.875" /><text dy="0.32em" fill="#9c9c9c" font-family="Monaco" text-anchor="end" x="-8" y="394.875">Real Salt Lake</text></g><g class="tick"><line stroke="#eee" stroke-width="1" x1="-4" x2="506.0" y1="365.625" y2="365.625" /><text dy="0.32em" fill="#9c9c9c" font-family="Monaco" text-anchor="end" x="-8" y="365.625">New England Revolution</text></g><g class="tick"><line stroke="#eee" stroke-width="1" x1="-4" x2="506.0" y1="336.375" y2="336.375" /><text dy="0.32em" fill="#9c9c9c" font-family="Monaco" text-anchor="end" x="-8" y="336.375">Portland Timbers</text></g><g class="tick"><line stroke="#eee" stroke-width="1" x1="-4" x2="506.0" y1="307.125" y2="307.125" /><text dy="0.32em" fill="#9c9c9c" font-family="Monaco" text-anchor="end" x="-8" y="307.125">Orlando City SC</text></g><g class="tick"><line stroke="#eee" stroke-width="1" x1="-4" x2="506.0" y1="277.875" y2="277.875" /><text dy="0.32em" fill="#9c9c9c" font-family="Monaco" text-anchor="end" x="-8" y="277.875">New York City FC</text></g><g class="tick"><line stroke="#eee" stroke-width="1" x1="-4" x2="506.0" y1="248.625" y2="248.625" /><text dy="0.32em" fill="#9c9c9c" font-family="Monaco" text-anchor="end" x="-8" y="248.625">San Jose Earthquakes</text></g><g class="tick"><line stroke="#eee" stroke-width="1" x1="-4" x2="506.0" y1="219.375" y2="219.375" /><text dy="0.32em" fill="#9c9c9c" font-family="Monaco" text-anchor="end" x="-8" y="219.375">D.C. United</text></g><g class="tick"><line stroke="#eee" stroke-width="1" x1="-4" x2="506.0" y1="190.125" y2="190.125" /><text dy="0.32em" fill="#9c9c9c" font-family="Monaco" text-anchor="end" x="-8" y="190.125">LA Galaxy</text></g><g class="tick"><line stroke="#eee" stroke-width="1" x1="-4" x2="506.0" y1="160.875" y2="160.875" /><text dy="0.32em" fill="#9c9c9c" font-family="Monaco" text-anchor="end" x="-8" y="160.875">New York Red Bulls</text></g><g class="tick"><line stroke="#eee" stroke-width="1" x1="-4" x2="506.0" y1="131.625" y2="131.625" /><text dy="0.32em" fill="#9c9c9c" font-family="Monaco" text-anchor="end" x="-8" y="131.625">LAFC</text></g><g class="tick"><line stroke="#eee" stroke-width="1" x1="-4" x2="506.0" y1="102.375" y2="102.375" /><text dy="0.32em" fill="#9c9c9c" font-family="Monaco" text-anchor="end" x="-8" y="102.375">Atlanta United</text></g><g class="tick"><line stroke="#eee" stroke-width="1" x1="-4" x2="506.0" y1="73.125" y2="73.125" /><text dy="0.32em" fill="#9c9c9c" font-family="Monaco" text-anchor="end" x="-8" y="73.125">Chicago Fire</text></g><g class="tick"><line stroke="#eee" stroke-width="1" x1="-4" x2="506.0" y1="43.875" y2="43.875" /><text dy="0.32em" fill="#9c9c9c" font-family="Monaco" text-anchor="end" x="-8" y="43.875">Houston Dynamo</text></g><g class="tick"><line stroke="#eee" stroke-width="1" x1="-4" x2="506.0" y1="14.625" y2="14.625" /><text dy="0.32em" fill="#9c9c9c" font-family="Monaco" text-anchor="end" x="-8" y="14.625">FC Dallas</text></g></g><g><g class="series bars"><rect fill="#e41a1c" height="26.3250" width="84.33333333333333333333333335" x="0" y="440.2125" /><rect fill="#e41a1c" height="26.3250" width="84.33333333333333333333333335" x="0" y="410.9625" /><rect fill="#e41a1c" height="26.3250" width="84.33333333333333333333333335" x="0" y="381.7125" /><rect fill="#e41a1c" height="26.3250" width="84.33333333333333333333333335" x="0" y="352.4625" /><rect fill="#e41a1c" height="26.3250" width="84.33333333333333333333333335" x="0" y="323.2125" /><rect fill="#e41a1c" height="26.3250" width="168.6666666666666666666666666" x="0" y="293.9625" /><rect fill="#e41a1c" height="26.3250" width="253.0" x="0" y="264.7125" /><rect fill="#e41a1c" height="26.3250" width="337.3333333333333333333333334" x="0" y="235.4625" /><rect fill="#e41a1c" height="26.3250" width="337.3333333333333333333333334" x="0" y="206.2125" /><rect fill="#e41a1c" height="26.3250" width="337.3333333333333333333333334" x="0" y="176.9625" /><rect fill="#e41a1c" height="26.3250" width="337.3333333333333333333333334" x="0" y="147.7125" /><rect fill="#e41a1c" height="26.3250" width="337.3333333333333333333333334" x="0" y="118.4625" /><rect fill="#e41a1c" height="26.3250" width="337.3333333333333333333333334" x="0" y="89.2125" /><rect fill="#e41a1c" height="26.3250" width="421.6666666666666666666666666" x="0" y="59.9625" /><rect fill="#e41a1c" height="26.3250" width="421.6666666666666666666666666" x="0" y="30.7125" /><rect fill="#e41a1c" height="26.3250" width="506" x="0" y="1.4625" /></g></g></g></g></g></g></svg>